<?xml version="1.0" standalone="no"?>
<!DOCTYPE svg PUBLIC "-//W3C//DTD SVG 20010904//EN"
 "http://www.w3.org/TR/2001/REC-SVG-20010904/DTD/svg10.dtd">
<svg version="1.0" xmlns="http://www.w3.org/2000/svg"
 width="1920.000000pt" height="1920.000000pt" viewBox="0 0 1920.000000 1920.000000"
 preserveAspectRatio="xMidYMid meet">

<g transform="translate(0.000000,1920.000000) scale(0.100000,-0.100000)"
fill="#000000" stroke="none">
<path d="M9530 14905 l0 -455 91 0 91 0 -4 335 c-2 184 -1 335 2 335 3 0 21
-29 40 -64 19 -35 105 -185 190 -334 l155 -271 128 -1 127 0 0 455 0 455 -91
0 -92 0 5 -335 c3 -184 4 -335 2 -335 -1 0 -89 151 -195 335 l-194 335 -127 0
-128 0 0 -455z"/>
<path d="M9936 13980 c-3 -14 -57 -342 -121 -730 -64 -388 -160 -977 -215
-1310 -54 -333 -129 -787 -166 -1010 -36 -223 -68 -407 -70 -409 -2 -3 -17 5
-32 16 -15 11 -187 134 -382 274 -195 141 -444 319 -553 398 -109 78 -200 141
-202 139 -3 -3 308 -441 687 -965 76 -105 138 -195 138 -200 0 -4 -271 -53
-603 -107 -331 -54 -883 -145 -1227 -202 -344 -56 -853 -140 -1132 -185 -280
-46 -508 -86 -508 -89 0 -3 228 -43 508 -89 472 -77 810 -133 2364 -388 329
-54 598 -102 598 -106 0 -5 -62 -95 -138 -200 -379 -524 -690 -962 -687 -965
2 -2 93 61 202 139 109 79 358 258 553 398 195 140 367 263 382 274 15 12 30
19 32 16 2 -2 34 -186 70 -409 37 -223 112 -677 166 -1010 55 -333 151 -922
215 -1310 119 -727 125 -762 131 -745 2 6 60 354 129 775 69 421 177 1078 240
1460 62 382 133 814 156 960 23 146 46 269 49 273 4 5 63 -32 131 -80 68 -49
318 -228 554 -398 237 -170 445 -319 463 -333 17 -13 32 -22 32 -20 0 3 -189
268 -419 589 -231 321 -417 587 -413 590 4 3 302 54 662 113 360 59 966 159
1345 221 380 62 864 142 1078 176 213 35 387 66 387 69 0 3 -174 34 -387 69
-214 34 -698 114 -1078 176 -379 62 -985 162 -1345 221 -360 59 -658 110 -662
113 -4 3 182 269 413 590 230 321 419 586 419 589 0 2 -15 -7 -32 -20 -18 -14
-226 -163 -463 -333 -236 -170 -486 -349 -554 -398 -68 -48 -127 -85 -131 -80
-3 4 -26 127 -49 273 -23 146 -94 578 -156 960 -63 382 -171 1039 -240 1460
-69 421 -127 770 -129 775 -2 6 -6 -1 -10 -15z m4 -2443 l0 -1054 -97 -12
c-53 -7 -135 -26 -182 -41 -48 -15 -87 -27 -87 -26 -1 0 18 120 42 266 77 461
314 1910 314 1915 0 3 2 5 5 5 3 0 5 -474 5 -1053z m200 -1313 c80 -25 169
-74 229 -125 140 -121 231 -317 231 -499 0 -142 -61 -308 -152 -416 -310 -369
-886 -300 -1093 131 -50 103 -68 179 -68 285 0 106 18 182 68 285 141 294 474
438 785 339z m1270 -363 c333 -55 787 -129 1010 -165 223 -37 439 -73 480 -80
66 -12 -57 -14 -1002 -15 l-1078 -1 0 39 c0 59 -28 196 -55 268 l-24 64 32 -6
c18 -3 304 -50 637 -104z m-2350 -273 c0 -47 33 -216 55 -277 14 -41 24 -76
22 -78 -2 -1 -125 17 -273 42 -396 65 -1200 197 -1589 261 -187 30 -344 57
-350 59 -5 2 473 4 1063 4 851 1 1072 -2 1072 -11z m1185 -1203 c-36 -220
-115 -700 -175 -1067 -61 -366 -110 -675 -110 -686 0 -12 -4 -24 -10 -27 -7
-4 -10 350 -10 1053 l0 1060 68 7 c85 8 186 31 248 55 27 10 50 15 52 11 1 -4
-27 -187 -63 -406z"/>
<path d="M9835 10046 c-178 -43 -314 -192 -345 -377 -54 -317 252 -595 565
-514 132 35 238 122 300 248 83 169 49 380 -85 517 -112 115 -281 164 -435
126z"/>
<path d="M9320 12778 c-493 -105 -927 -299 -1317 -589 -575 -429 -1017 -1084
-1189 -1763 -28 -110 -66 -288 -62 -291 2 -1 100 13 219 33 l217 35 27 106
c174 670 600 1262 1185 1647 263 173 579 312 860 379 41 10 76 18 77 19 1 1
16 85 32 186 17 102 33 200 36 218 7 36 -1 38 -85 20z"/>
<path d="M10481 12763 c0 -15 15 -113 32 -218 l33 -189 34 -9 c268 -67 549
-178 769 -304 80 -46 273 -179 361 -249 104 -83 335 -312 416 -414 201 -250
360 -530 462 -810 29 -80 95 -301 103 -345 4 -18 27 -24 219 -55 196 -33 215
-34 218 -19 9 47 -85 397 -155 584 -378 1000 -1233 1759 -2267 2009 -77 19
-160 38 -183 41 -42 7 -43 6 -42 -22z"/>
<path d="M3890 10045 c0 -12 97 -398 209 -835 l17 -65 111 -3 c100 -2 112 -1
117 15 24 81 146 589 146 608 0 49 17 32 28 -28 7 -34 43 -181 80 -327 l69
-265 111 -3 111 -3 10 38 c5 21 30 119 55 218 25 99 72 285 105 413 34 128 61
237 61 243 0 5 -41 9 -94 9 -82 0 -95 -2 -100 -17 -14 -48 -135 -584 -141
-626 -4 -26 -11 -49 -15 -52 -4 -2 -13 28 -19 68 -7 40 -44 197 -83 350 l-72
277 -93 0 c-51 0 -93 -2 -93 -4 0 -2 -32 -125 -71 -273 -39 -147 -77 -301 -85
-342 -8 -41 -16 -76 -18 -78 -2 -2 -10 34 -19 79 -9 46 -45 203 -79 351 l-62
267 -93 0 c-76 0 -93 -3 -93 -15z"/>
<path d="M14790 9600 l0 -460 263 2 262 3 3 77 3 78 -168 2 -168 3 0 115 0
115 153 3 152 3 0 79 0 80 -155 0 -156 0 3 98 3 97 168 3 168 2 -3 78 -3 77
-262 3 -263 2 0 -460z"/>
<path d="M6750 9067 c0 -14 43 -208 64 -293 195 -771 717 -1477 1413 -1917
141 -88 436 -234 588 -290 196 -72 574 -172 590 -155 4 4 -62 429 -68 434 -1
0 -36 9 -77 19 -114 27 -295 89 -427 145 -794 341 -1404 1049 -1618 1881 l-27
106 -202 32 c-110 18 -209 34 -218 37 -10 3 -18 3 -18 1z"/>
<path d="M12910 9030 c-192 -31 -215 -37 -219 -55 -8 -44 -74 -265 -103 -345
-102 -280 -261 -560 -462 -810 -81 -102 -312 -331 -416 -414 -88 -70 -281
-203 -361 -249 -208 -119 -472 -227 -714 -290 l-90 -24 -32 -189 c-17 -104
-32 -202 -32 -217 -1 -28 0 -29 42 -22 23 3 106 22 183 41 937 227 1738 877
2154 1747 78 165 145 338 188 487 39 134 84 337 80 359 -3 15 -22 14 -218 -19z"/>
<path d="M9850 4765 c-73 -21 -124 -56 -157 -108 -23 -35 -27 -56 -30 -127 -4
-80 -2 -88 27 -138 36 -62 82 -97 211 -162 132 -67 167 -111 138 -173 -18 -39
-54 -52 -138 -51 -59 1 -95 8 -160 33 -47 17 -88 31 -93 31 -15 0 -9 -166 6
-179 7 -6 51 -21 97 -32 179 -46 367 -6 438 92 40 54 55 110 48 180 -10 114
-67 174 -246 264 -112 56 -141 82 -141 127 0 74 64 107 170 88 33 -6 75 -17
94 -25 56 -24 62 -20 92 56 32 82 34 78 -66 110 -86 28 -218 34 -290 14z"/>
</g>
</svg>
